<?xml version="1.0" encoding="utf-8"?>
<!-- Generator: Adobe Illustrator 27.2.0, SVG Export Plug-In . SVG Version: 6.00 Build 0)  -->
<svg version="1.1" id="Layer_1" xmlns="http://www.w3.org/2000/svg" xmlns:xlink="http://www.w3.org/1999/xlink" x="0px" y="0px"
	 viewBox="0 0 87.99 29.96" style="enable-background:new 0 0 87.99 29.96;" xml:space="preserve">
<style type="text/css">
	.st0{fill:#FFFFFF;}
</style>
<g>
	<path class="st0" d="M8.36,4.29l1.23,0.08c0.31,1.36,0.94,3.28,1.89,5.76c0.95,2.48,1.58,4.34,1.89,5.56
		c0,0.32-0.06,0.56-0.16,0.72c-0.11,0.16-0.25,0.24-0.41,0.24c-0.14,0-0.28-0.06-0.4-0.17c-0.13-0.11-0.21-0.28-0.25-0.48
		c-0.1-0.48-0.42-1.45-0.95-2.89c-2.25-0.29-3.67-0.46-4.25-0.53c-0.14,0.39-0.32,1.04-0.52,1.92S6.05,16,5.93,16.34
		c-0.16,0.2-0.35,0.3-0.56,0.3c-0.23,0-0.43-0.1-0.59-0.3s-0.25-0.45-0.25-0.75c0.35-1.28,0.99-3.17,1.91-5.65
		C7.36,7.44,8,5.57,8.36,4.29z M8.93,5.95C8.71,7.28,8.1,9.23,7.11,11.79h1.84c0.83,0,1.52,0.03,2.08,0.08
		C9.9,9.45,9.2,7.48,8.93,5.95z"/>
	<path class="st0" d="M14.41,4.94l0.76,0.16l0.36,10.64c-0.1,0.34-0.29,0.51-0.58,0.51c-0.2,0-0.39-0.08-0.57-0.24
		c-0.18-0.16-0.29-0.35-0.34-0.58L14.41,4.94z"/>
	<path class="st0" d="M23.5,14.62l0.16,0.72c-0.48,0.18-1.2,0.37-2.15,0.58s-1.65,0.32-2.11,0.32c-0.47,0-0.88-0.16-1.23-0.47
		c-0.35-0.31-0.61-0.71-0.79-1.2c-0.18-0.49-0.3-0.97-0.39-1.45c-0.08-0.48-0.12-0.95-0.12-1.41c0-2.74,1.24-4.11,3.71-4.11
		c0.59,0,1.11,0.19,1.56,0.57c0.45,0.38,0.67,0.87,0.67,1.47c0,0.33-0.09,0.62-0.27,0.87c-0.18,0.25-0.4,0.45-0.66,0.6
		c-0.26,0.15-0.59,0.28-0.99,0.4c-0.4,0.12-0.75,0.21-1.06,0.26c-0.31,0.06-0.67,0.12-1.1,0.18c-0.43,0.07-0.72,0.11-0.89,0.15
		c0.01,0.32,0.03,0.6,0.06,0.84s0.08,0.5,0.16,0.78c0.08,0.28,0.19,0.51,0.33,0.69c0.14,0.18,0.33,0.33,0.57,0.45
		c0.24,0.12,0.53,0.18,0.85,0.18c0.39,0,0.88-0.04,1.45-0.11s1.08-0.15,1.52-0.22C23.24,14.66,23.48,14.62,23.5,14.62z M17.93,11.1
		c1.49-0.43,2.71-0.88,3.67-1.35c-0.08-0.36-0.18-0.62-0.31-0.79c-0.13-0.16-0.33-0.25-0.59-0.25c-0.67,0-1.27,0.23-1.82,0.69
		C18.33,9.87,18.01,10.43,17.93,11.1z"/>
	<path class="st0" d="M24.35,16.62l-0.71-0.38c0.28-0.71,1.03-2.09,2.24-4.14c-0.64-0.87-1.36-2.31-2.17-4.32h0.72
		c0.41,0.85,1.09,1.97,2.05,3.34c0.16-0.23,0.38-0.59,0.65-1.07c0.27-0.48,0.53-0.9,0.79-1.25s0.55-0.66,0.88-0.92
		C29.2,8.1,29.4,8.35,29.4,8.65c0,0.16-0.04,0.32-0.11,0.48c-0.3,0.36-0.67,0.93-1.13,1.71c-0.46,0.78-0.75,1.25-0.85,1.41
		c1.16,1.62,1.95,2.84,2.35,3.67c0,0.42-0.19,0.62-0.56,0.62c-0.37,0-0.66-0.18-0.85-0.54c-0.2-0.66-0.72-1.59-1.56-2.79
		c-0.19,0.31-0.57,0.86-1.14,1.67C24.95,15.68,24.56,16.26,24.35,16.62z"/>
	<path class="st0" d="M35.27,4.41l0.74-0.2c0,0.35,0.01,0.55,0.02,0.59c0.62-0.42,1.5-0.62,2.63-0.62c1.22,0,2.13,0.38,2.73,1.14
		c0.6,0.76,0.9,1.83,0.9,3.2c0,1.22-0.3,2.23-0.89,3.02s-1.48,1.2-2.68,1.2c-0.2,0-0.99-0.07-2.37-0.2c0.02,0.8,0.07,2.04,0.13,3.73
		c-0.1,0.34-0.29,0.51-0.58,0.51c-0.2,0-0.39-0.08-0.57-0.24c-0.18-0.16-0.29-0.35-0.34-0.58c0.03-0.92,0.07-2.71,0.11-5.38
		C35.15,7.93,35.2,5.87,35.27,4.41z M36.17,5.9l0.13,5.13c0.6,0.33,1.3,0.49,2.09,0.49c0.76,0,1.4-0.28,1.92-0.85
		c0.53-0.57,0.79-1.27,0.79-2.09c0-0.89-0.27-1.69-0.82-2.4c-0.55-0.71-1.23-1.07-2.05-1.07C37.56,5.12,36.87,5.38,36.17,5.9z"/>
	<path class="st0" d="M49.44,14.62l0.16,0.72c-0.48,0.18-1.2,0.37-2.15,0.58s-1.65,0.32-2.11,0.32c-0.47,0-0.88-0.16-1.23-0.47
		c-0.35-0.31-0.61-0.71-0.79-1.2c-0.18-0.49-0.3-0.97-0.39-1.45c-0.08-0.48-0.12-0.95-0.12-1.41c0-2.74,1.24-4.11,3.71-4.11
		c0.59,0,1.11,0.19,1.56,0.57c0.45,0.38,0.67,0.87,0.67,1.47c0,0.33-0.09,0.62-0.27,0.87c-0.18,0.25-0.4,0.45-0.66,0.6
		c-0.26,0.15-0.59,0.28-0.99,0.4c-0.4,0.12-0.75,0.21-1.06,0.26c-0.31,0.06-0.67,0.12-1.1,0.18c-0.43,0.07-0.72,0.11-0.89,0.15
		c0.01,0.32,0.03,0.6,0.06,0.84s0.08,0.5,0.16,0.78c0.08,0.28,0.19,0.51,0.33,0.69c0.14,0.18,0.33,0.33,0.57,0.45
		c0.24,0.12,0.53,0.18,0.85,0.18c0.39,0,0.88-0.04,1.45-0.11s1.08-0.15,1.52-0.22C49.18,14.66,49.41,14.62,49.44,14.62z M43.86,11.1
		c1.49-0.43,2.71-0.88,3.67-1.35c-0.08-0.36-0.18-0.62-0.31-0.79c-0.13-0.16-0.33-0.25-0.59-0.25c-0.67,0-1.27,0.23-1.82,0.69
		C44.27,9.87,43.95,10.43,43.86,11.1z"/>
	<path class="st0" d="M55.68,9.95L54.96,9.9c-0.23-0.61-0.62-0.92-1.16-0.92c-0.24,0-0.49,0.06-0.76,0.16
		c-0.27,0.11-0.49,0.22-0.66,0.34c-0.17,0.11-0.4,0.28-0.69,0.5c0,0.15,0,0.65-0.01,1.5c-0.01,0.84,0,1.78,0.02,2.81
		c0.02,1.03,0.04,1.58,0.06,1.66c-0.1,0.33-0.29,0.49-0.58,0.49c-0.2,0-0.39-0.08-0.57-0.24c-0.18-0.16-0.3-0.35-0.34-0.58
		c0.21-3.52,0.4-6.17,0.57-7.97l0.75,0.16l0.05,1.1c0.76-0.64,1.42-0.95,1.96-0.95c0.6,0,1.1,0.14,1.51,0.41
		c0.41,0.27,0.61,0.67,0.61,1.2C55.72,9.73,55.7,9.86,55.68,9.95z"/>
	<path class="st0" d="M60.63,9.03l0.15,0.76c-0.23,0.03-0.61,0.07-1.15,0.11c-0.54,0.04-0.94,0.09-1.2,0.13
		c0,2.82,0.03,4.86,0.1,6.13c-0.13,0.43-0.35,0.64-0.67,0.64c-0.15,0-0.28-0.06-0.41-0.18c-0.13-0.12-0.21-0.27-0.26-0.46
		c0-0.33,0.02-1.22,0.06-2.68s0.06-2.59,0.06-3.39l-1.25-0.05c-0.02-0.22-0.03-0.59-0.03-1.1c0.11,0.02,0.32,0.05,0.62,0.08
		c0.31,0.03,0.52,0.06,0.62,0.07c0.03-0.35,0.05-0.85,0.05-1.5c0-1.25,0.1-2.1,0.31-2.56c0.21-0.46,0.71-0.69,1.5-0.69
		c0.85,0,1.54,0.16,2.08,0.48l-0.1,0.59c-0.14,0-0.36-0.01-0.67-0.04c-0.3-0.03-0.53-0.04-0.68-0.04c-0.45,0-0.79,0.1-1.02,0.3
		c-0.23,0.2-0.34,0.58-0.34,1.13c0,0.18,0,0.36,0.01,0.57s0.01,0.33,0.01,0.39c0,0.41-0.01,0.85-0.02,1.33
		c0.17,0,0.42,0.01,0.73,0.02c0.31,0.01,0.54,0.02,0.68,0.02C60.1,9.08,60.37,9.06,60.63,9.03z"/>
	<path class="st0" d="M68.49,14.62l0.16,0.72c-0.48,0.18-1.2,0.37-2.15,0.58s-1.65,0.32-2.11,0.32c-0.47,0-0.88-0.16-1.23-0.47
		c-0.35-0.31-0.61-0.71-0.79-1.2c-0.18-0.49-0.3-0.97-0.39-1.45c-0.08-0.48-0.12-0.95-0.12-1.41c0-2.74,1.24-4.11,3.71-4.11
		c0.59,0,1.11,0.19,1.56,0.57c0.45,0.38,0.67,0.87,0.67,1.47c0,0.33-0.09,0.62-0.27,0.87c-0.18,0.25-0.4,0.45-0.66,0.6
		c-0.26,0.15-0.59,0.28-0.99,0.4c-0.4,0.12-0.75,0.21-1.06,0.26c-0.31,0.06-0.67,0.12-1.1,0.18c-0.43,0.07-0.72,0.11-0.89,0.15
		c0.01,0.32,0.03,0.6,0.06,0.84s0.08,0.5,0.16,0.78c0.08,0.28,0.19,0.51,0.33,0.69c0.14,0.18,0.33,0.33,0.57,0.45
		c0.24,0.12,0.53,0.18,0.85,0.18c0.39,0,0.88-0.04,1.45-0.11s1.08-0.15,1.52-0.22C68.23,14.66,68.47,14.62,68.49,14.62z M62.92,11.1
		c1.49-0.43,2.71-0.88,3.67-1.35c-0.08-0.36-0.18-0.62-0.31-0.79c-0.13-0.16-0.33-0.25-0.59-0.25c-0.67,0-1.27,0.23-1.82,0.69
		C63.32,9.87,63,10.43,62.92,11.1z"/>
	<path class="st0" d="M73.8,8.26L73.98,9c-0.3,0.02-0.75,0.08-1.36,0.17C72,9.26,71.54,9.32,71.23,9.34
		c0.05,0.38,0.09,0.89,0.1,1.51c0.01,0.62,0.02,1.16,0.04,1.62s0.07,0.91,0.15,1.36s0.25,0.8,0.51,1.04
		c0.26,0.24,0.6,0.36,1.04,0.36c0.33,0,0.74-0.08,1.23-0.23c0.21,0.41,0.36,0.7,0.46,0.89c-0.87,0.31-1.74,0.46-2.63,0.46
		c-0.33,0-0.61-0.1-0.85-0.3c-0.24-0.2-0.43-0.44-0.56-0.74c-0.13-0.3-0.24-0.67-0.32-1.13c-0.08-0.45-0.13-0.88-0.16-1.29
		s-0.03-0.87-0.03-1.4c0-0.28,0-0.68,0.01-1.18c0.01-0.5,0.01-0.85,0.01-1.04c-0.11,0.01-0.37,0.02-0.77,0.02
		c-0.41,0.01-0.64,0.01-0.71,0.01c-0.08-0.73-0.12-1.11-0.12-1.13c0.08,0.02,0.2,0.03,0.38,0.03c0.1,0,0.26-0.01,0.48-0.02
		c0.22-0.02,0.38-0.02,0.49-0.02c0.04,0,0.1,0,0.17,0.01c0.07,0.01,0.12,0.01,0.14,0.01c0.04-1.21,0.09-2.19,0.15-2.94l0.74,0.18
		c0.01,0.26,0.02,0.54,0.02,0.85c0.01,0.3,0.01,0.64,0.02,1c0.01,0.37,0.01,0.65,0.01,0.85c0.28,0.02,0.71,0.04,1.28,0.07
		C73.08,8.21,73.51,8.23,73.8,8.26z"/>
	<path class="st0" d="M79.91,8.26L80.09,9c-0.3,0.02-0.75,0.08-1.36,0.17c-0.61,0.09-1.07,0.15-1.38,0.17
		c0.05,0.38,0.09,0.89,0.1,1.51c0.01,0.62,0.02,1.16,0.04,1.62s0.07,0.91,0.15,1.36s0.25,0.8,0.51,1.04
		c0.26,0.24,0.6,0.36,1.04,0.36c0.33,0,0.74-0.08,1.23-0.23c0.21,0.41,0.36,0.7,0.46,0.89c-0.87,0.31-1.74,0.46-2.63,0.46
		c-0.33,0-0.61-0.1-0.85-0.3c-0.24-0.2-0.43-0.44-0.56-0.74c-0.13-0.3-0.24-0.67-0.32-1.13c-0.08-0.45-0.13-0.88-0.16-1.29
		s-0.03-0.87-0.03-1.4c0-0.28,0-0.68,0.01-1.18c0.01-0.5,0.01-0.85,0.01-1.04c-0.11,0.01-0.37,0.02-0.77,0.02
		c-0.41,0.01-0.64,0.01-0.71,0.01c-0.08-0.73-0.12-1.11-0.12-1.13c0.08,0.02,0.2,0.03,0.38,0.03c0.1,0,0.26-0.01,0.48-0.02
		c0.22-0.02,0.38-0.02,0.49-0.02c0.04,0,0.1,0,0.17,0.01c0.07,0.01,0.12,0.01,0.14,0.01C76.45,6.98,76.5,6,76.56,5.25l0.74,0.18
		c0.01,0.26,0.02,0.54,0.02,0.85c0.01,0.3,0.01,0.64,0.02,1c0.01,0.37,0.01,0.65,0.01,0.85c0.28,0.02,0.71,0.04,1.28,0.07
		C79.2,8.21,79.63,8.23,79.91,8.26z"/>
	<path class="st0" d="M82.13,4.82c0.3,0,0.54,0.13,0.74,0.39c0.2,0.26,0.3,0.55,0.3,0.88c0,0.24-0.06,0.44-0.17,0.58
		c-0.11,0.15-0.27,0.22-0.47,0.22c-0.31,0-0.55-0.13-0.72-0.38c-0.18-0.25-0.26-0.55-0.26-0.89c0-0.24,0.05-0.44,0.16-0.58
		C81.8,4.89,81.94,4.82,82.13,4.82z M81.9,7.76l0.76,0.16c0.09,0.9,0.16,2.31,0.23,4.23c0.07,1.92,0.11,3.11,0.13,3.58
		c-0.1,0.34-0.29,0.51-0.58,0.51c-0.2,0-0.39-0.08-0.57-0.24c-0.18-0.16-0.29-0.35-0.34-0.58c0.02-0.45,0.07-1.62,0.13-3.51
		C81.74,10.02,81.81,8.64,81.9,7.76z"/>
</g>
<g>
	<path class="st0" d="M37.89,19.48l0.49,0.02c-0.01,0.01-0.22,0.88-0.63,2.62c-0.42,1.74-0.7,2.8-0.85,3.19
		c-0.05,0.01-0.11,0.02-0.16,0.02c-0.15,0-0.32-0.02-0.51-0.06c-0.08-0.24-0.17-0.58-0.28-1c-0.11-0.42-0.22-0.89-0.33-1.4
		c-0.11-0.51-0.21-0.97-0.3-1.37c-0.08-0.4-0.17-0.82-0.26-1.28c-0.09-0.45-0.14-0.7-0.15-0.75h0.46c0.22,1,0.61,2.59,1.17,4.79
		C37.36,21.22,37.81,19.63,37.89,19.48z"/>
	<path class="st0" d="M41.74,18.45l0.37,0.14c-0.21,0.7-0.71,1.94-1.53,3.71c-0.81,1.77-1.32,3.01-1.53,3.72
		c-0.07,0.09-0.17,0.14-0.28,0.14c-0.11,0-0.2-0.04-0.28-0.13s-0.12-0.18-0.12-0.3c0-0.24,0.25-0.87,0.74-1.88s1.03-2.08,1.6-3.2
		C41.29,19.53,41.63,18.8,41.74,18.45z"/>
	<path class="st0" d="M45.54,19.3l0.48,0.04c0.07,1,0.11,1.84,0.11,2.52c0,0.5-0.01,1.07-0.04,1.7c-0.01,0.27-0.03,0.5-0.06,0.69
		c-0.03,0.19-0.09,0.37-0.17,0.55c-0.08,0.18-0.19,0.32-0.33,0.43c-0.14,0.11-0.32,0.19-0.54,0.25s-0.49,0.09-0.8,0.09
		c-0.23,0-0.43-0.02-0.6-0.06c-0.17-0.04-0.32-0.09-0.43-0.16c-0.12-0.06-0.21-0.15-0.3-0.25s-0.15-0.22-0.19-0.33
		c-0.05-0.11-0.08-0.25-0.11-0.41c-0.02-0.16-0.04-0.31-0.05-0.45c-0.01-0.14-0.02-0.31-0.03-0.5c0-0.02,0-0.03,0-0.03
		c-0.03-0.66-0.04-1.22-0.04-1.68c0-0.39,0.02-1.17,0.05-2.35l0.45,0.1c0.01,0.5,0.04,1.21,0.09,2.13s0.08,1.58,0.1,1.97
		c0,0.18,0.01,0.33,0.02,0.44s0.04,0.23,0.08,0.37s0.1,0.25,0.17,0.32c0.07,0.08,0.17,0.14,0.3,0.19c0.13,0.05,0.29,0.08,0.48,0.08
		c0.19,0,0.35-0.01,0.49-0.04c0.14-0.02,0.25-0.07,0.34-0.13c0.09-0.06,0.16-0.13,0.22-0.19c0.06-0.07,0.1-0.16,0.13-0.29
		c0.03-0.13,0.06-0.24,0.07-0.33c0.01-0.09,0.03-0.23,0.04-0.42c0.04-0.47,0.06-1.22,0.06-2.26S45.53,19.59,45.54,19.3z"/>
	<path class="st0" d="M46.8,25.39l-0.35-0.18c0.14-0.33,0.3-0.65,0.48-0.97c0.18-0.32,0.43-0.72,0.75-1.2
		c0.32-0.48,0.51-0.79,0.59-0.9c-0.14-0.21-0.41-0.62-0.83-1.22s-0.73-1.07-0.94-1.42l0.34-0.15c0.46,0.54,1.04,1.31,1.73,2.31
		c0.03-0.1,0.26-0.46,0.71-1.08c0.45-0.62,0.7-0.98,0.77-1.1c0.08-0.14,0.18-0.2,0.29-0.2c0.11,0,0.21,0.05,0.29,0.14
		c0.09,0.09,0.13,0.2,0.14,0.33c-0.03,0.04-0.31,0.42-0.84,1.16s-0.86,1.18-0.99,1.33c0.18,0.29,0.54,0.78,1.05,1.49
		c0.52,0.71,0.85,1.17,0.98,1.41c0,0.1-0.03,0.18-0.08,0.24c-0.05,0.05-0.12,0.08-0.2,0.08c-0.18,0-0.32-0.09-0.42-0.27l-1.66-2.48
		c-0.17,0.27-0.46,0.7-0.88,1.3C47.31,24.6,47,25.06,46.8,25.39z"/>
	<path class="st0" d="M54.35,18.45l0.37,0.14c-0.21,0.7-0.71,1.94-1.53,3.71c-0.81,1.77-1.32,3.01-1.53,3.72
		c-0.07,0.09-0.17,0.14-0.28,0.14c-0.11,0-0.2-0.04-0.28-0.13s-0.12-0.18-0.12-0.3c0-0.24,0.25-0.87,0.74-1.88s1.03-2.08,1.6-3.2
		C53.89,19.53,54.23,18.8,54.35,18.45z"/>
	<path class="st0" d="M58.15,19.3l0.48,0.04c0.07,1,0.11,1.84,0.11,2.52c0,0.5-0.01,1.07-0.04,1.7c-0.01,0.27-0.03,0.5-0.06,0.69
		c-0.03,0.19-0.09,0.37-0.17,0.55c-0.08,0.18-0.19,0.32-0.33,0.43c-0.14,0.11-0.32,0.19-0.54,0.25s-0.49,0.09-0.8,0.09
		c-0.23,0-0.43-0.02-0.6-0.06c-0.17-0.04-0.32-0.09-0.43-0.16c-0.12-0.06-0.21-0.15-0.3-0.25s-0.15-0.22-0.19-0.33
		c-0.05-0.11-0.08-0.25-0.11-0.41c-0.02-0.16-0.04-0.31-0.05-0.45c-0.01-0.14-0.02-0.31-0.03-0.5c0-0.02,0-0.03,0-0.03
		c-0.03-0.66-0.04-1.22-0.04-1.68c0-0.39,0.02-1.17,0.05-2.35l0.45,0.1c0.01,0.5,0.04,1.21,0.09,2.13s0.08,1.58,0.1,1.97
		c0,0.18,0.01,0.33,0.02,0.44s0.04,0.23,0.08,0.37s0.1,0.25,0.17,0.32c0.07,0.08,0.17,0.14,0.3,0.19c0.13,0.05,0.29,0.08,0.48,0.08
		c0.19,0,0.35-0.01,0.49-0.04c0.14-0.02,0.25-0.07,0.34-0.13c0.09-0.06,0.16-0.13,0.22-0.19c0.06-0.07,0.1-0.16,0.13-0.29
		c0.03-0.13,0.06-0.24,0.07-0.33c0.01-0.09,0.03-0.23,0.04-0.42c0.04-0.47,0.06-1.22,0.06-2.26S58.14,19.59,58.15,19.3z"/>
	<path class="st0" d="M59.25,25.34l-0.02-0.4c0.5-0.08,0.81-0.12,0.92-0.13c0.01-0.18,0.01-0.46,0.01-0.83
		c0-0.49-0.01-1.19-0.03-2.11c-0.02-0.92-0.04-1.53-0.04-1.82l-0.82-0.04l-0.06-0.46c0.22,0.01,0.56,0.01,1.03,0.01
		c0.48,0,0.83,0,1.06,0.01l0.02,0.4c-0.09,0.04-0.22,0.06-0.39,0.07c-0.17,0.01-0.27,0.01-0.32,0.02c0.02,0.15,0.03,0.53,0.03,1.15
		c0,0.61,0,1.29,0,2.03s0.01,1.27,0.02,1.58c0.09,0.02,0.25,0.04,0.5,0.06c0.24,0.02,0.39,0.04,0.45,0.05l-0.02,0.42
		c-0.16-0.01-0.42-0.01-0.77-0.01c-0.18,0-0.46,0-0.82,0C59.66,25.34,59.4,25.34,59.25,25.34z"/>
	<path class="st0" d="M64.44,25.27l0.02-5.86c1.2,0.01,2.13,0.32,2.78,0.92s0.98,1.49,0.98,2.65c0,0.37-0.1,0.71-0.29,1.02
		c-0.19,0.31-0.44,0.55-0.75,0.74c-0.31,0.18-0.64,0.33-0.99,0.43c-0.35,0.1-0.7,0.15-1.05,0.15C64.93,25.32,64.7,25.3,64.44,25.27z
		 M65.05,24.77h0.14c0.31,0,0.61-0.04,0.89-0.11c0.29-0.07,0.55-0.18,0.79-0.33c0.24-0.15,0.44-0.35,0.58-0.6s0.22-0.55,0.22-0.89
		c0-0.45-0.14-0.92-0.41-1.38s-0.6-0.85-0.99-1.14c-0.39-0.29-0.75-0.43-1.07-0.43c-0.07,0-0.14,0.01-0.2,0.02
		C65,20.24,65.02,21.86,65.05,24.77z"/>
	<path class="st0" d="M72.16,24.53l0.08,0.36c-0.24,0.09-0.59,0.18-1.06,0.29s-0.82,0.16-1.04,0.16c-0.23,0-0.44-0.08-0.61-0.23
		c-0.17-0.15-0.3-0.35-0.39-0.59c-0.09-0.24-0.15-0.48-0.19-0.71c-0.04-0.24-0.06-0.47-0.06-0.69c0-1.35,0.61-2.03,1.83-2.03
		c0.29,0,0.55,0.09,0.77,0.28c0.22,0.19,0.33,0.43,0.33,0.73c0,0.16-0.04,0.31-0.13,0.43c-0.09,0.12-0.2,0.22-0.32,0.3
		c-0.13,0.07-0.29,0.14-0.49,0.2s-0.37,0.1-0.52,0.13s-0.33,0.06-0.54,0.09c-0.21,0.03-0.36,0.06-0.44,0.07
		c0.01,0.16,0.01,0.29,0.03,0.41c0.01,0.12,0.04,0.25,0.08,0.39s0.09,0.25,0.16,0.34c0.07,0.09,0.16,0.16,0.28,0.22
		c0.12,0.06,0.26,0.09,0.42,0.09c0.19,0,0.43-0.02,0.71-0.05s0.53-0.07,0.75-0.11C72.03,24.55,72.15,24.53,72.16,24.53z
		 M69.41,22.79c0.74-0.21,1.34-0.43,1.81-0.67c-0.04-0.18-0.09-0.31-0.15-0.39s-0.16-0.12-0.29-0.12c-0.33,0-0.63,0.11-0.9,0.34
		C69.61,22.19,69.45,22.46,69.41,22.79z"/>
	<path class="st0" d="M75.06,21.41l-0.08,0.32c-0.52-0.22-0.93-0.32-1.22-0.32c-0.26,0-0.44,0.04-0.55,0.12s-0.16,0.24-0.16,0.5
		c0,0.21,0.07,0.38,0.22,0.51c0.15,0.14,0.33,0.24,0.54,0.32c0.21,0.08,0.42,0.16,0.64,0.25c0.21,0.09,0.4,0.22,0.54,0.39
		c0.15,0.17,0.22,0.39,0.22,0.64c0,0.35-0.13,0.65-0.38,0.91c-0.25,0.26-0.58,0.39-0.99,0.4c-0.3,0-0.58-0.06-0.84-0.19
		c-0.26-0.12-0.47-0.28-0.62-0.47l0.24-0.25c0.06,0.03,0.16,0.07,0.29,0.13c0.13,0.06,0.22,0.1,0.27,0.12s0.13,0.04,0.24,0.06
		s0.22,0.03,0.34,0.03c0.25,0,0.46-0.06,0.62-0.17c0.16-0.11,0.24-0.27,0.24-0.48c0-0.13-0.04-0.25-0.11-0.34
		c-0.08-0.09-0.18-0.17-0.3-0.23c-0.12-0.06-0.26-0.12-0.41-0.17c-0.15-0.05-0.3-0.11-0.45-0.18c-0.15-0.07-0.29-0.15-0.41-0.24
		c-0.12-0.09-0.22-0.22-0.3-0.39s-0.11-0.35-0.11-0.58c0-0.32,0.09-0.6,0.26-0.82c0.18-0.22,0.42-0.33,0.74-0.33
		c0.12,0,0.27,0.02,0.42,0.06c0.16,0.04,0.28,0.07,0.37,0.11c0.09,0.03,0.23,0.08,0.41,0.16C74.93,21.35,75.03,21.4,75.06,21.41z"/>
	<path class="st0" d="M76,19.69c0.15,0,0.27,0.06,0.37,0.19c0.1,0.13,0.15,0.27,0.15,0.43c0,0.12-0.03,0.21-0.09,0.29
		c-0.06,0.07-0.13,0.11-0.23,0.11c-0.15,0-0.27-0.06-0.36-0.19s-0.13-0.27-0.13-0.44c0-0.12,0.03-0.21,0.08-0.29
		C75.84,19.73,75.91,19.69,76,19.69z M75.89,21.15l0.37,0.08c0.04,0.44,0.08,1.14,0.11,2.09c0.03,0.95,0.05,1.54,0.06,1.76
		c-0.05,0.17-0.14,0.25-0.28,0.25c-0.1,0-0.19-0.04-0.28-0.12c-0.09-0.08-0.15-0.17-0.17-0.29c0.01-0.22,0.03-0.8,0.06-1.73
		S75.85,21.58,75.89,21.15z"/>
	<path class="st0" d="M79.65,21.13l0.36-0.08c0,0.16,0,0.29,0.01,0.38c0.03,1.18,0.05,1.95,0.05,2.31c0,0.12,0,0.32,0.01,0.58
		c0.01,0.26,0.01,0.46,0.01,0.6c0,0.3-0.01,0.55-0.03,0.77c-0.02,0.22-0.06,0.44-0.13,0.68s-0.15,0.43-0.26,0.58
		c-0.11,0.15-0.27,0.27-0.47,0.37c-0.2,0.1-0.44,0.15-0.72,0.15c-0.24,0-0.66-0.04-1.26-0.11c-0.01-0.06-0.02-0.12-0.03-0.19
		c-0.01-0.07-0.02-0.12-0.02-0.16c0-0.08,0.01-0.15,0.02-0.2c0.04,0.01,0.21,0.03,0.51,0.07c0.29,0.04,0.51,0.06,0.65,0.06
		c0.37,0,0.66-0.11,0.86-0.34s0.3-0.65,0.31-1.27c-0.27,0.15-0.54,0.23-0.84,0.23c-0.24,0-0.46-0.05-0.64-0.15
		c-0.18-0.1-0.33-0.23-0.44-0.38c-0.11-0.15-0.2-0.34-0.26-0.56c-0.07-0.22-0.11-0.43-0.14-0.64c-0.02-0.21-0.04-0.42-0.04-0.66
		c0-0.58,0.13-1.07,0.39-1.47c0.26-0.39,0.65-0.59,1.17-0.59c0.31,0,0.61,0.09,0.91,0.28C79.65,21.33,79.65,21.24,79.65,21.13z
		 M79.56,24.53l0.02-2.61c-0.03-0.1-0.13-0.17-0.3-0.23s-0.36-0.08-0.56-0.08c-0.29,0-0.52,0.13-0.68,0.4
		c-0.16,0.27-0.24,0.59-0.24,0.98c0,0.2,0.01,0.4,0.03,0.59c0.02,0.19,0.06,0.4,0.13,0.63c0.06,0.23,0.17,0.41,0.32,0.55
		c0.15,0.14,0.33,0.21,0.54,0.21c0.16,0,0.31-0.04,0.45-0.12C79.39,24.76,79.49,24.66,79.56,24.53z"/>
	<path class="st0" d="M81.31,22.06l0.03,3.22c-0.08,0.04-0.18,0.06-0.29,0.06c-0.09,0-0.18-0.01-0.29-0.04
		c0.02-0.34,0.03-1.01,0.03-2.01c0-1,0.03-1.74,0.06-2.22l0.37,0.08l0.02,0.45c0.29-0.3,0.62-0.45,0.99-0.45
		c0.19,0,0.34,0.01,0.45,0.04c0.11,0.03,0.22,0.09,0.33,0.2c0.1,0.11,0.19,0.24,0.24,0.42c0.05,0.17,0.1,0.42,0.15,0.74
		c0.04,0.32,0.07,0.7,0.09,1.13c0.02,0.43,0.03,0.97,0.04,1.63c-0.03,0.01-0.09,0.02-0.19,0.02c-0.19,0-0.35-0.02-0.45-0.07
		c-0.02-0.09-0.03-0.23-0.03-0.43c0-0.1,0-0.3,0.01-0.58c0.01-0.28,0.01-0.51,0.01-0.66c0-0.26-0.01-0.49-0.03-0.68
		c-0.02-0.19-0.05-0.39-0.11-0.58c-0.05-0.19-0.13-0.34-0.23-0.44c-0.11-0.1-0.24-0.15-0.39-0.15c-0.18,0-0.32,0.01-0.42,0.04
		c-0.1,0.03-0.17,0.06-0.21,0.1C81.45,21.9,81.39,21.97,81.31,22.06z"/>
</g>
</svg>
